<svg xmlns="http://www.w3.org/2000/svg" xmlns:xlink="http://www.w3.org/1999/xlink" width="2000" zoomAndPan="magnify" viewBox="0 0 1500 1499.999933" height="2000" preserveAspectRatio="xMidYMid meet" version="1.0"><defs><g/><clipPath id="7d0385d2db"><path d="M 712.871094 225.957031 L 1483.292969 225.957031 L 1483.292969 996.375 L 712.871094 996.375 Z M 712.871094 225.957031 " clip-rule="nonzero"/></clipPath><clipPath id="4aac1ac03a"><path d="M 1098.082031 225.957031 C 885.335938 225.957031 712.871094 398.417969 712.871094 611.164062 C 712.871094 823.910156 885.335938 996.375 1098.082031 996.375 C 1310.828125 996.375 1483.292969 823.910156 1483.292969 611.164062 C 1483.292969 398.417969 1310.828125 225.957031 1098.082031 225.957031 Z M 1098.082031 225.957031 " clip-rule="nonzero"/></clipPath><clipPath id="66366ab17e"><path d="M 0.871094 0.957031 L 771.292969 0.957031 L 771.292969 771.375 L 0.871094 771.375 Z M 0.871094 0.957031 " clip-rule="nonzero"/></clipPath><clipPath id="ceea7f5779"><path d="M 386.082031 0.957031 C 173.335938 0.957031 0.871094 173.417969 0.871094 386.164062 C 0.871094 598.910156 173.335938 771.375 386.082031 771.375 C 598.828125 771.375 771.292969 598.910156 771.292969 386.164062 C 771.292969 173.417969 598.828125 0.957031 386.082031 0.957031 Z M 386.082031 0.957031 " clip-rule="nonzero"/></clipPath><clipPath id="e69966f6c2"><rect x="0" width="772" y="0" height="772"/></clipPath><clipPath id="7e903e5ca2"><rect x="0" width="1336" y="0" height="1010"/></clipPath></defs><g clip-path="url(#7d0385d2db)"><g clip-path="url(#4aac1ac03a)"><g transform="matrix(1, 0, 0, 1, 712, 225)"><g clip-path="url(#e69966f6c2)"><g clip-path="url(#66366ab17e)"><g clip-path="url(#ceea7f5779)"><path fill="#ff3962" d="M 0.871094 0.957031 L 771.292969 0.957031 L 771.292969 771.375 L 0.871094 771.375 Z M 0.871094 0.957031 " fill-opacity="1" fill-rule="nonzero"/></g></g></g></g></g></g><g transform="matrix(1, 0, 0, 1, 98, 284)"><g clip-path="url(#7e903e5ca2)"><g fill="#ffdddd" fill-opacity="1"><g transform="translate(423.596386, 496.094457)"><g><path d="M 32.796875 0 L 32.796875 -280.359375 L 129.515625 -280.359375 L 129.515625 -239.90625 L 130.609375 -239.90625 C 131.335938 -241.363281 132.519531 -243.1875 134.15625 -245.375 C 135.800781 -247.5625 139.351562 -251.382812 144.8125 -256.84375 C 150.28125 -262.3125 156.109375 -267.234375 162.296875 -271.609375 C 168.492188 -275.984375 176.507812 -279.898438 186.34375 -283.359375 C 196.1875 -286.816406 206.207031 -288.546875 216.40625 -288.546875 C 226.976562 -288.546875 237.363281 -287.085938 247.5625 -284.171875 C 257.757812 -281.265625 265.226562 -278.351562 269.96875 -275.4375 L 277.625 -271.0625 L 237.1875 -189.09375 C 225.15625 -199.289062 208.394531 -204.390625 186.90625 -204.390625 C 175.25 -204.390625 165.226562 -201.835938 156.84375 -196.734375 C 148.46875 -191.640625 142.546875 -185.445312 139.078125 -178.15625 C 135.617188 -170.875 133.160156 -164.679688 131.703125 -159.578125 C 130.242188 -154.472656 129.515625 -150.46875 129.515625 -147.5625 L 129.515625 0 Z M 32.796875 0 "/></g></g></g><g fill="#ffdddd" fill-opacity="1"><g transform="translate(650.34909, 496.094457)"><g><path d="M 316.421875 -126.78125 L 113.125 -126.78125 C 113.125 -107.113281 119.5 -92.539062 132.25 -83.0625 C 145 -73.59375 158.84375 -68.859375 173.78125 -68.859375 C 189.445312 -68.859375 201.832031 -70.953125 210.9375 -75.140625 C 220.050781 -79.328125 230.4375 -87.617188 242.09375 -100.015625 L 312.046875 -65.03125 C 282.898438 -16.207031 234.445312 8.203125 166.6875 8.203125 C 124.414062 8.203125 88.160156 -6.28125 57.921875 -35.25 C 27.679688 -64.21875 12.5625 -99.101562 12.5625 -139.90625 C 12.5625 -180.707031 27.679688 -215.679688 57.921875 -244.828125 C 88.160156 -273.972656 124.414062 -288.546875 166.6875 -288.546875 C 211.132812 -288.546875 247.289062 -275.703125 275.15625 -250.015625 C 303.03125 -224.335938 316.96875 -187.632812 316.96875 -139.90625 C 316.96875 -133.34375 316.785156 -128.96875 316.421875 -126.78125 Z M 115.859375 -180.34375 L 222.421875 -180.34375 C 220.234375 -194.914062 214.492188 -206.117188 205.203125 -213.953125 C 195.921875 -221.785156 183.992188 -225.703125 169.421875 -225.703125 C 153.390625 -225.703125 140.632812 -221.507812 131.15625 -213.125 C 121.6875 -204.75 116.585938 -193.820312 115.859375 -180.34375 Z M 115.859375 -180.34375 "/></g></g></g><g fill="#ffdddd" fill-opacity="1"><g transform="translate(937.754974, 496.094457)"><g><path d="M 51.90625 -34.703125 C 25.675781 -63.304688 12.5625 -98.375 12.5625 -139.90625 C 12.5625 -181.4375 25.675781 -216.59375 51.90625 -245.375 C 78.144531 -274.15625 111.484375 -288.546875 151.921875 -288.546875 C 189.085938 -288.546875 219.691406 -276.890625 243.734375 -253.578125 L 243.734375 -469.984375 L 340.46875 -469.984375 L 340.46875 0 L 244.828125 0 L 244.828125 -31.703125 L 243.734375 -31.703125 C 219.691406 -5.097656 189.085938 8.203125 151.921875 8.203125 C 111.484375 8.203125 78.144531 -6.097656 51.90625 -34.703125 Z M 134.15625 -187.453125 C 121.59375 -175.066406 115.3125 -159.21875 115.3125 -139.90625 C 115.3125 -120.59375 121.320312 -104.832031 133.34375 -92.625 C 145.363281 -80.425781 161.210938 -74.328125 180.890625 -74.328125 C 199.835938 -74.328125 215.410156 -80.519531 227.609375 -92.90625 C 239.816406 -105.289062 245.921875 -120.957031 245.921875 -139.90625 C 245.921875 -159.21875 239.632812 -175.066406 227.0625 -187.453125 C 214.5 -199.835938 199.109375 -206.03125 180.890625 -206.03125 C 162.304688 -206.03125 146.726562 -199.835938 134.15625 -187.453125 Z M 134.15625 -187.453125 "/></g></g></g><g fill="#ffdddd" fill-opacity="1"><g transform="translate(3.484432, 814.495096)"><g><path d="M 32.796875 0 L 32.796875 -469.984375 L 129.515625 -469.984375 L 129.515625 0 Z M 32.796875 0 "/></g></g></g><g fill="#ffdddd" fill-opacity="1"><g transform="translate(123.685499, 814.495096)"><g><path d="M 316.421875 -126.78125 L 113.125 -126.78125 C 113.125 -107.113281 119.5 -92.539062 132.25 -83.0625 C 145 -73.59375 158.84375 -68.859375 173.78125 -68.859375 C 189.445312 -68.859375 201.832031 -70.953125 210.9375 -75.140625 C 220.050781 -79.328125 230.4375 -87.617188 242.09375 -100.015625 L 312.046875 -65.03125 C 282.898438 -16.207031 234.445312 8.203125 166.6875 8.203125 C 124.414062 8.203125 88.160156 -6.28125 57.921875 -35.25 C 27.679688 -64.21875 12.5625 -99.101562 12.5625 -139.90625 C 12.5625 -180.707031 27.679688 -215.679688 57.921875 -244.828125 C 88.160156 -273.972656 124.414062 -288.546875 166.6875 -288.546875 C 211.132812 -288.546875 247.289062 -275.703125 275.15625 -250.015625 C 303.03125 -224.335938 316.96875 -187.632812 316.96875 -139.90625 C 316.96875 -133.34375 316.785156 -128.96875 316.421875 -126.78125 Z M 115.859375 -180.34375 L 222.421875 -180.34375 C 220.234375 -194.914062 214.492188 -206.117188 205.203125 -213.953125 C 195.921875 -221.785156 183.992188 -225.703125 169.421875 -225.703125 C 153.390625 -225.703125 140.632812 -221.507812 131.15625 -213.125 C 121.6875 -204.75 116.585938 -193.820312 115.859375 -180.34375 Z M 115.859375 -180.34375 "/></g></g></g><g fill="#ffdddd" fill-opacity="1"><g transform="translate(408.358932, 814.495096)"><g><path d="M 49.1875 -280.359375 L 49.1875 -384.734375 L 145.921875 -384.734375 L 145.921875 -280.359375 L 204.9375 -280.359375 L 204.9375 -206.578125 L 145.921875 -206.578125 L 145.921875 -117.5 C 145.921875 -91.632812 153.207031 -78.703125 167.78125 -78.703125 C 171.414062 -78.703125 175.238281 -79.425781 179.25 -80.875 C 183.257812 -82.332031 186.359375 -83.789062 188.546875 -85.25 L 191.828125 -87.4375 L 215.875 -9.296875 C 195.101562 2.367188 171.421875 8.203125 144.828125 8.203125 C 126.609375 8.203125 110.941406 5.015625 97.828125 -1.359375 C 84.710938 -7.742188 74.78125 -16.304688 68.03125 -27.046875 C 61.289062 -37.796875 56.460938 -49.09375 53.546875 -60.9375 C 50.640625 -72.78125 49.1875 -85.441406 49.1875 -98.921875 L 49.1875 -206.578125 L 8.75 -206.578125 L 8.75 -280.359375 Z M 49.1875 -280.359375 "/></g></g></g><g fill="#ffdddd" fill-opacity="1"><g transform="translate(578.830218, 814.495096)"><g><path d="M 49.1875 -280.359375 L 49.1875 -384.734375 L 145.921875 -384.734375 L 145.921875 -280.359375 L 204.9375 -280.359375 L 204.9375 -206.578125 L 145.921875 -206.578125 L 145.921875 -117.5 C 145.921875 -91.632812 153.207031 -78.703125 167.78125 -78.703125 C 171.414062 -78.703125 175.238281 -79.425781 179.25 -80.875 C 183.257812 -82.332031 186.359375 -83.789062 188.546875 -85.25 L 191.828125 -87.4375 L 215.875 -9.296875 C 195.101562 2.367188 171.421875 8.203125 144.828125 8.203125 C 126.609375 8.203125 110.941406 5.015625 97.828125 -1.359375 C 84.710938 -7.742188 74.78125 -16.304688 68.03125 -27.046875 C 61.289062 -37.796875 56.460938 -49.09375 53.546875 -60.9375 C 50.640625 -72.78125 49.1875 -85.441406 49.1875 -98.921875 L 49.1875 -206.578125 L 8.75 -206.578125 L 8.75 -280.359375 Z M 49.1875 -280.359375 "/></g></g></g><g fill="#ffdddd" fill-opacity="1"><g transform="translate(752.580527, 814.495096)"><g><path d="M 316.421875 -126.78125 L 113.125 -126.78125 C 113.125 -107.113281 119.5 -92.539062 132.25 -83.0625 C 145 -73.59375 158.84375 -68.859375 173.78125 -68.859375 C 189.445312 -68.859375 201.832031 -70.953125 210.9375 -75.140625 C 220.050781 -79.328125 230.4375 -87.617188 242.09375 -100.015625 L 312.046875 -65.03125 C 282.898438 -16.207031 234.445312 8.203125 166.6875 8.203125 C 124.414062 8.203125 88.160156 -6.28125 57.921875 -35.25 C 27.679688 -64.21875 12.5625 -99.101562 12.5625 -139.90625 C 12.5625 -180.707031 27.679688 -215.679688 57.921875 -244.828125 C 88.160156 -273.972656 124.414062 -288.546875 166.6875 -288.546875 C 211.132812 -288.546875 247.289062 -275.703125 275.15625 -250.015625 C 303.03125 -224.335938 316.96875 -187.632812 316.96875 -139.90625 C 316.96875 -133.34375 316.785156 -128.96875 316.421875 -126.78125 Z M 115.859375 -180.34375 L 222.421875 -180.34375 C 220.234375 -194.914062 214.492188 -206.117188 205.203125 -213.953125 C 195.921875 -221.785156 183.992188 -225.703125 169.421875 -225.703125 C 153.390625 -225.703125 140.632812 -221.507812 131.15625 -213.125 C 121.6875 -204.75 116.585938 -193.820312 115.859375 -180.34375 Z M 115.859375 -180.34375 "/></g></g></g><g fill="#ffdddd" fill-opacity="1"><g transform="translate(1038.893404, 814.495096)"><g><path d="M 32.796875 0 L 32.796875 -280.359375 L 129.515625 -280.359375 L 129.515625 -239.90625 L 130.609375 -239.90625 C 131.335938 -241.363281 132.519531 -243.1875 134.15625 -245.375 C 135.800781 -247.5625 139.351562 -251.382812 144.8125 -256.84375 C 150.28125 -262.3125 156.109375 -267.234375 162.296875 -271.609375 C 168.492188 -275.984375 176.507812 -279.898438 186.34375 -283.359375 C 196.1875 -286.816406 206.207031 -288.546875 216.40625 -288.546875 C 226.976562 -288.546875 237.363281 -287.085938 247.5625 -284.171875 C 257.757812 -281.265625 265.226562 -278.351562 269.96875 -275.4375 L 277.625 -271.0625 L 237.1875 -189.09375 C 225.15625 -199.289062 208.394531 -204.390625 186.90625 -204.390625 C 175.25 -204.390625 165.226562 -201.835938 156.84375 -196.734375 C 148.46875 -191.640625 142.546875 -185.445312 139.078125 -178.15625 C 135.617188 -170.875 133.160156 -164.679688 131.703125 -159.578125 C 130.242188 -154.472656 129.515625 -150.46875 129.515625 -147.5625 L 129.515625 0 Z M 32.796875 0 "/></g></g></g></g></g></svg>